# This file uses centimeters as units for non-parametric coordinates.

mtllib puertaPerro.mtl
g default
v -6.328766 2.682437 -11.793838
v -6.328766 2.535153 -11.660292
v -6.172089 2.535153 -11.660292
v -6.172089 2.682437 -11.793838
v -6.328766 2.736346 -11.976266
v -6.172089 2.736346 -11.976266
v -6.328766 2.333960 -11.611410
v -6.172089 2.333960 -11.611410
v -6.172089 2.736346 -12.706121
v -6.328766 2.736346 -12.706121
v -6.328766 1.055139 -11.611410
v -6.172089 1.055139 -11.611410
v -6.328766 2.682437 -12.888549
v -6.172089 2.682437 -12.888549
v -6.328766 2.535153 -13.022096
v -6.172089 2.535153 -13.022096
v -6.328766 1.055139 -11.610199
v -6.328766 1.054383 -11.610199
v -6.172089 1.054383 -11.610199
v -6.172089 1.055139 -11.610199
v -6.328766 2.333960 -13.070976
v -6.172089 2.333960 -13.070976
v -6.328766 1.054383 -13.077436
v -6.172089 1.054383 -13.077436
v -6.172089 1.055139 -13.070976
v -6.328766 1.055139 -13.070976
v -6.172089 1.055139 -13.077436
v -6.328766 1.055139 -13.077436
vt 0.233691 0.274097
vt 0.233691 0.235701
vt 0.280276 0.235701
vt 0.280276 0.274098
vt 0.233691 0.312494
vt 0.280276 0.312494
vt 0.233691 0.197304
vt 0.280276 0.197304
vt 0.280276 0.437506
vt 0.233691 0.437506
vt 0.233691 0.029831
vt 0.280276 0.029831
vt 0.233691 0.475903
vt 0.280276 0.475903
vt 0.233691 0.514300
vt 0.280276 0.514300
vt 0.375000 0.000111
vt 0.375000 0.000000
vt 0.123417 0.000000
vt 0.123417 0.000111
vt 0.216012 0.969671
vt 0.216012 0.969825
vt 0.303023 0.969825
vt 0.303023 0.969671
vt 0.233691 0.552696
vt 0.280276 0.552697
vt 0.129063 0.750000
vt 0.379063 0.750000
vt 0.379063 1.000000
vt 0.129063 1.000000
vt 0.280276 0.720168
vt 0.233691 0.720168
vt 0.303023 0.783655
vt 0.303023 0.782832
vt 0.216012 0.782832
vt 0.216012 0.783655
vt 0.379063 0.749889
vt 0.129063 0.749889
vt 0.373417 0.000000
vt 0.373417 0.000111
vt 0.372317 0.000111
vt 0.372317 0.188545
vt 0.363988 0.218191
vt 0.341233 0.239893
vt 0.310150 0.247837
vt 0.185791 0.247837
vt 0.154707 0.239893
vt 0.131953 0.218191
vt 0.123624 0.188545
vt 0.123624 0.000111
vt 0.125000 0.000000
vt 0.374794 0.000111
vt 0.374794 0.188545
vt 0.366465 0.218191
vt 0.343710 0.239893
vt 0.312627 0.247837
vt 0.188268 0.247837
vt 0.157184 0.239893
vt 0.134429 0.218191
vt 0.126101 0.188545
vt 0.126101 0.000111
vt 0.125000 0.000111
vn 0.000000 0.671714 0.740811
vn 0.000000 0.463792 0.885944
vn 0.000000 0.463792 0.885944
vn 0.000000 0.671714 0.740811
vn 0.000000 0.998259 0.058990
vn 0.000000 0.959003 0.283397
vn 0.000000 0.959003 0.283397
vn 0.000000 0.998259 0.058990
vn 0.000000 0.033010 0.999455
vn 0.000000 0.033010 0.999455
vn 0.000000 0.998259 -0.058990
vn 0.000000 0.998259 -0.058990
vn 0.000000 0.000000 1.000000
vn 0.000000 0.000000 1.000000
vn 0.000000 0.959002 -0.283398
vn 0.000000 0.959002 -0.283398
vn 0.000000 0.463791 -0.885945
vn 0.000000 0.671716 -0.740809
vn 0.000000 0.671716 -0.740809
vn 0.000000 0.463791 -0.885945
vn 0.000000 0.000000 1.000000
vn 0.000000 0.000000 1.000000
vn 0.000000 0.000000 1.000000
vn 0.000000 0.000000 1.000000
vn 0.000000 1.000000 0.000000
vn 0.000000 1.000000 0.000000
vn 0.000000 1.000000 0.000000
vn 0.000000 1.000000 0.000000
vn 0.000000 0.033009 -0.999455
vn 0.000000 0.033009 -0.999455
vn 0.000000 -1.000000 0.000000
vn 0.000000 -1.000000 0.000000
vn 0.000000 -1.000000 0.000000
vn 0.000000 -1.000000 0.000000
vn 0.000000 0.000000 -1.000000
vn 0.000000 0.000000 -1.000000
vn 0.000000 1.000000 0.000000
vn 0.000000 1.000000 0.000000
vn 0.000000 1.000000 0.000000
vn 0.000000 1.000000 0.000000
vn 0.000000 0.000000 -1.000000
vn 0.000000 0.000000 -1.000000
vn 0.000000 0.000000 -1.000000
vn 0.000000 0.000000 -1.000000
vn 1.000000 -0.000000 0.000000
vn 1.000000 -0.000000 0.000000
vn 1.000000 -0.000000 0.000000
vn 1.000000 -0.000000 0.000000
vn 1.000000 -0.000000 0.000000
vn 1.000000 -0.000000 0.000000
vn 1.000000 -0.000000 0.000000
vn 1.000000 -0.000000 0.000000
vn 1.000000 -0.000000 0.000000
vn 1.000000 -0.000000 0.000000
vn 1.000000 -0.000000 0.000000
vn 1.000000 -0.000000 0.000000
vn 1.000000 -0.000000 0.000000
vn 1.000000 -0.000000 0.000000
vn -1.000000 0.000000 0.000000
vn -1.000000 0.000000 0.000000
vn -1.000000 0.000000 0.000000
vn -1.000000 0.000000 0.000000
vn -1.000000 0.000000 0.000000
vn -1.000000 0.000000 0.000000
vn -1.000000 0.000000 0.000000
vn -1.000000 0.000000 0.000000
vn -1.000000 0.000000 0.000000
vn -1.000000 0.000000 0.000000
vn -1.000000 0.000000 0.000000
vn -1.000000 0.000000 0.000000
vn -1.000000 0.000000 0.000000
vn -1.000000 0.000000 0.000000
s 1
g polySurface34
usemtl lambert21SG
f 1/1/1 2/2/2 3/3/3 4/4/4
s 2
f 5/5/5 1/1/6 4/4/7 6/6/8
s 1
f 2/2/2 7/7/9 8/8/10 3/3/3
s 2
f 6/6/8 9/9/11 10/10/12 5/5/5
s 1
f 7/7/9 11/11/13 12/12/14 8/8/10
s 2
f 13/13/15 10/10/12 9/9/11 14/14/16
s 3
f 15/15/17 13/13/18 14/14/19 16/16/20
s off
f 17/17/21 18/18/22 19/19/23 20/20/24
f 11/21/25 17/22/26 20/23/27 12/24/28
s 3
f 21/25/29 15/15/17 16/16/20 22/26/30
s off
f 23/27/31 24/28/32 19/29/33 18/30/34
s 3
f 22/26/30 25/31/35 26/32/36 21/25/29
s off
f 25/33/37 27/34/38 28/35/39 26/36/40
f 27/37/41 24/28/42 23/27/43 28/38/44
f 19/19/45 24/39/46 27/40/47 25/41/48 22/42/49 16/43/50 14/44/51 9/45/52 6/46/53 4/47/54 3/48/55 8/49/56 12/50/57 20/20/58
f 23/51/59 18/18/60 17/17/61 11/52/62 7/53/63 2/54/64 1/55/65 5/56/66 10/57/67 13/58/68 15/59/69 21/60/70 26/61/71 28/62/72
