# This file uses centimeters as units for non-parametric coordinates.

mtllib pantalla.mtl
g default
v -0.540018 -0.550937 -0.492033
v -0.560582 -0.571500 -0.492033
v -0.568108 -0.599591 -0.492033
v -0.511927 -0.543410 -0.492033
v -0.568108 -0.599591 -0.542031
v -0.560582 -0.571500 -0.542031
v -0.540018 -0.550937 -0.542031
v -0.511927 -0.543410 -0.542031
v 0.560582 -0.571500 -0.492033
v 0.540018 -0.550937 -0.492033
v 0.511927 -0.543410 -0.492033
v 0.568108 -0.599591 -0.492033
v 0.568108 -0.599591 -0.542031
v 0.511927 -0.543410 -0.542031
v 0.540018 -0.550937 -0.542031
v 0.560582 -0.571500 -0.542031
v -0.560582 -0.740066 -0.492033
v -0.540018 -0.760630 -0.492033
v -0.511927 -0.768157 -0.492033
v -0.568108 -0.711976 -0.492033
v -0.540018 -0.760630 -0.542031
v -0.560582 -0.740066 -0.542031
v -0.568108 -0.711976 -0.542031
v -0.511927 -0.768157 -0.542031
v 0.540018 -0.760630 -0.492033
v 0.560582 -0.740066 -0.492033
v 0.568108 -0.711976 -0.492033
v 0.511927 -0.768157 -0.492033
v 0.560582 -0.740066 -0.542031
v 0.540018 -0.760630 -0.542031
v 0.511927 -0.768157 -0.542031
v 0.568108 -0.711976 -0.542031
vt 0.378549 0.101306
vt 0.708667 0.046281
vt 0.593186 0.458931
vt 0.488588 0.101306
vt 0.067899 0.687621
vt 0.593186 0.128813
vt 0.708667 0.101306
vt 0.494029 0.458931
vt 0.378549 0.046281
vt 0.598627 0.046281
vt 0.293177 0.937621
vt 0.598627 0.101306
vt 0.494029 0.128813
vt 0.488588 0.046281
vt 0.494029 0.018774
vt 0.593186 0.018774
vt 0.494029 0.348892
vt 0.055538 0.875127
vt 0.055538 0.750114
vt 0.593186 0.238853
vt 0.305538 0.750114
vt 0.305538 0.875127
vt 0.492350 0.128813
vt 0.488588 0.128813
vt 0.488588 0.238853
vt 0.378549 0.128813
vt 0.492350 0.238853
vt 0.598627 0.128813
vt 0.594865 0.128813
vt 0.594865 0.238853
vt 0.708667 0.128813
vt 0.598627 0.238853
vt 0.476347 0.043221
vt 0.493382 0.445852
vt 0.323529 0.018774
vt 0.493829 0.454895
vt 0.492350 0.348892
vt 0.378549 0.018774
vt 0.488588 0.348892
vt 0.323529 0.018774
vt 0.594865 0.327645
vt 0.610868 0.043221
vt 0.598627 0.033483
vt 0.598627 0.348892
vt 0.708667 0.018774
vt 0.594865 0.348892
vt 0.593186 0.348892
vt 0.296991 0.937621
vt 0.305538 0.937621
vt 0.055538 0.937621
vt 0.064085 0.937621
vt 0.067899 0.937621
vt 0.305538 0.687621
vt 0.296991 0.687621
vt 0.293177 0.687621
vt 0.494029 0.238853
vt 0.064085 0.687621
vt 0.055538 0.687621
vn -0.007155 0.999974 0.000000
vn -0.007155 0.999974 0.000000
vn 0.007155 0.999974 0.000000
vn 0.007155 0.999974 0.000000
vn -0.007155 -0.999974 0.000000
vn -0.007155 -0.999974 0.000000
vn 0.007155 -0.999974 0.000000
vn 0.007155 -0.999974 0.000000
vn 0.998568 -0.053504 0.000000
vn 0.998568 -0.053504 0.000000
vn 0.998568 0.053504 0.000000
vn 0.998568 0.053504 0.000000
vn -0.998568 -0.053504 0.000000
vn -0.998568 -0.053504 0.000000
vn -0.998568 0.053504 0.000000
vn -0.998568 0.053504 0.000000
vn -0.965926 0.258818 0.000000
vn -0.965926 0.258818 0.000000
vn -0.707108 0.707105 0.000000
vn -0.707108 0.707105 0.000000
vn -0.707108 0.707105 0.000000
vn -0.707108 0.707105 0.000000
vn -0.258818 0.965926 0.000000
vn -0.258818 0.965926 0.000000
vn 0.258818 0.965926 0.000000
vn 0.258818 0.965926 0.000000
vn 0.707108 0.707105 0.000000
vn 0.707108 0.707105 0.000000
vn 0.707108 0.707105 0.000000
vn 0.707108 0.707105 0.000000
vn 0.965926 0.258818 0.000000
vn 0.965926 0.258818 0.000000
vn -0.258818 -0.965926 0.000000
vn -0.258818 -0.965926 0.000000
vn -0.707106 -0.707107 0.000000
vn -0.707106 -0.707107 0.000000
vn -0.707106 -0.707107 0.000000
vn -0.707106 -0.707107 0.000000
vn -0.965926 -0.258817 0.000000
vn -0.965926 -0.258817 0.000000
vn 0.965926 -0.258817 0.000000
vn 0.965926 -0.258817 0.000000
vn 0.707106 -0.707107 0.000000
vn 0.707106 -0.707107 0.000000
vn 0.707106 -0.707107 0.000000
vn 0.707106 -0.707107 0.000000
vn 0.258818 -0.965926 0.000000
vn 0.258818 -0.965926 0.000000
vn 0.000000 0.000000 1.000000
vn 0.000000 0.000000 1.000000
vn 0.000000 0.000000 1.000000
vn 0.000000 0.000000 1.000000
vn 0.000000 0.000000 1.000000
vn 0.000000 0.000000 1.000000
vn 0.000000 0.000000 1.000000
vn 0.000000 0.000000 1.000000
vn 0.000000 0.000000 1.000000
vn 0.000000 0.000000 1.000000
vn 0.000000 0.000000 1.000000
vn 0.000000 0.000000 1.000000
vn 0.000000 0.000000 1.000000
vn 0.000000 0.000000 1.000000
vn 0.000000 0.000000 1.000000
vn 0.000000 0.000000 1.000000
vn 0.000000 0.000000 -1.000000
vn 0.000000 0.000000 -1.000000
vn 0.000000 0.000000 -1.000000
vn 0.000000 0.000000 -1.000000
vn 0.000000 0.000000 -1.000000
vn 0.000000 0.000000 -1.000000
vn 0.000000 0.000000 -1.000000
vn 0.000000 0.000000 -1.000000
vn 0.000000 0.000000 -1.000000
vn 0.000000 0.000000 -1.000000
vn 0.000000 0.000000 -1.000000
vn 0.000000 0.000000 -1.000000
vn 0.000000 0.000000 -1.000000
vn 0.000000 0.000000 -1.000000
vn 0.000000 0.000000 -1.000000
vn 0.000000 0.000000 -1.000000
s 1
g pCube11
usemtl phong1SG
f 8/56/1 4/13/2 11/6/3 14/20/4
s 2
f 19/8/5 24/17/6 31/47/7 28/3/8
s 3
f 27/10/9 32/2/10 13/7/11 12/12/12
s 4
f 23/9/13 20/14/14 3/4/15 5/1/16
f 3/4/15 2/24/17 6/26/18 5/1/16
s off
f 2/24/19 1/23/20 7/27/21 6/25/22
s 1
f 1/23/23 4/13/2 8/56/1 7/27/24
f 11/6/3 10/29/25 15/30/26 14/20/4
s off
f 10/29/27 9/28/28 16/32/29 15/30/30
s 3
f 9/28/31 12/12/12 13/7/11 16/31/32
s 2
f 19/8/5 18/36/33 21/37/34 24/17/6
s off
f 18/36/35 17/34/36 22/39/37 21/37/38
s 4
f 17/33/39 20/14/14 23/9/13 22/38/40
s 3
f 27/10/9 26/42/41 29/45/42 32/2/10
s off
f 26/43/43 25/41/44 30/46/45 29/44/46
s 2
f 25/41/47 28/3/8 31/47/7 30/46/48
s off
f 25/40/49 26/42/50 27/10/51 12/12/52 9/28/53 10/29/54 11/6/55 4/13/56 1/23/57 2/24/58 3/4/59 20/14/60 17/33/61 18/35/62 19/15/63 28/16/64
f 29/49/65 30/48/66 31/11/67 24/52/68 21/51/69 22/50/70 23/18/71 5/19/72 6/58/73 7/57/74 8/5/75 14/55/76 15/54/77 16/53/78 13/21/79 32/22/80
