# This file uses centimeters as units for non-parametric coordinates.

mtllib red.mtl
g default
v -7.417497 7.720110 4.651463
v -7.547866 7.720110 4.395598
v -7.750922 7.720110 4.192543
v -8.006786 7.720110 4.062173
v -8.290415 7.720110 4.017252
v -8.574043 7.720110 4.062173
v -8.829907 7.720110 4.192543
v -9.032963 7.720110 4.395598
v -9.163332 7.720110 4.651463
v -9.208254 7.720110 4.935091
v -9.163332 7.720110 5.218719
v -9.032963 7.720110 5.474584
v -8.829907 7.720110 5.677639
v -8.574043 7.720110 5.808008
v -8.290415 7.720110 5.852930
v -8.006786 7.720110 5.808008
v -7.750922 7.720110 5.677639
v -7.547867 7.720110 5.474584
v -7.417498 7.720110 5.218719
v -7.372576 7.720110 4.935091
v -7.072835 9.290450 4.539475
v -7.254680 9.290450 4.182586
v -7.537910 9.290450 3.899356
v -7.894799 9.290450 3.717512
v -8.290415 9.290450 3.654853
v -8.686030 9.290450 3.717512
v -9.042920 9.290450 3.899356
v -9.326149 9.290450 4.182586
v -9.507994 9.290450 4.539476
v -9.570653 9.290450 4.935091
v -9.507994 9.290450 5.330706
v -9.326149 9.290450 5.687596
v -9.042920 9.290450 5.970825
v -8.686030 9.290450 6.152670
v -8.290415 9.290450 6.215329
v -7.894800 9.290450 6.152670
v -7.537910 9.290450 5.970825
v -7.254681 9.290450 5.687596
v -7.072836 9.290450 5.330706
v -7.010177 9.290450 4.935091
v -8.290415 7.720110 4.935091
v -8.290415 9.290450 4.935091
vt 0.999112 -0.046990
vt 1.008427 -0.006251
vt -0.216820 0.273881
vt -0.226134 0.233142
vt 1.008427 -0.006251
vt 1.017741 0.034489
vt -0.207505 0.314621
vt -0.216820 0.273881
vt 1.017741 0.034489
vt 1.027056 0.075228
vt -0.198191 0.355360
vt -0.207505 0.314621
vt 1.027056 0.075228
vt 1.036370 0.115968
vt -0.188876 0.396100
vt -0.198191 0.355360
vt 1.036370 0.115968
vt 1.045684 0.156707
vt -0.179562 0.436839
vt -0.188876 0.396100
vt 1.045684 0.156707
vt 1.054999 0.197446
vt -0.170248 0.477578
vt -0.179562 0.436839
vt 1.054999 0.197446
vt 1.064313 0.238186
vt -0.160933 0.518318
vt -0.170248 0.477578
vt 1.064313 0.238186
vt 1.073627 0.278925
vt -0.151619 0.559057
vt -0.160933 0.518318
vt 1.073627 0.278925
vt 1.082942 0.319665
vt -0.142305 0.599797
vt -0.151619 0.559057
vt 1.082942 0.319665
vt 1.092256 0.360404
vt -0.132990 0.640536
vt -0.142305 0.599797
vt 1.092256 0.360404
vt 1.101571 0.401143
vt -0.123676 0.681275
vt -0.132990 0.640536
vt 1.101571 0.401143
vt 1.110885 0.441883
vt -0.114361 0.722015
vt -0.123676 0.681275
vt 1.110885 0.441883
vt 1.120199 0.482622
vt -0.105047 0.762754
vt -0.114361 0.722015
vt 1.120199 0.482622
vt 1.129514 0.523362
vt -0.095733 0.803493
vt -0.105047 0.762754
vt 1.129514 0.523362
vt 1.138828 0.564101
vt -0.086418 0.844233
vt -0.095733 0.803493
vt 1.138828 0.564101
vt 1.148143 0.604840
vt -0.077104 0.884972
vt -0.086418 0.844233
vt 1.148143 0.604840
vt 1.157457 0.645580
vt -0.067790 0.925712
vt -0.077104 0.884972
vt 1.157457 0.645580
vt 1.166771 0.686319
vt -0.058475 0.966451
vt -0.067790 0.925712
vt 1.166771 0.686319
vt 1.176086 0.727059
vt -0.049161 1.007191
vt -0.058475 0.966451
vt 1.176086 0.727059
vt 1.185400 0.767798
vt -0.039846 1.047930
vt -0.049161 1.007191
vt 0.623355 0.124678
vt 0.630984 0.139652
vt 0.579901 0.154101
vt 0.611472 0.112796
vt 0.596499 0.105166
vt 0.579901 0.102537
vt 0.563302 0.105166
vt 0.548329 0.112796
vt 0.536446 0.124678
vt 0.528817 0.139652
vt 0.526188 0.156250
vt 0.528817 0.172848
vt 0.536446 0.187821
vt 0.548329 0.199704
vt 0.563302 0.207334
vt 0.579901 0.209963
vt 0.596499 0.207334
vt 0.611472 0.199704
vt 0.623355 0.187821
vt 0.630984 0.172848
vt 0.633613 0.156250
vt 0.622049 0.842757
vt 0.614584 0.857407
vt 0.572067 0.824414
vt 0.602958 0.869034
vt 0.588307 0.876498
vt 0.572067 0.879071
vt 0.555827 0.876498
vt 0.541177 0.869034
vt 0.529550 0.857407
vt 0.522085 0.842757
vt 0.519513 0.826517
vt 0.522085 0.810276
vt 0.529550 0.795626
vt 0.541177 0.783999
vt 0.555827 0.776535
vt 0.572067 0.773963
vt 0.588307 0.776535
vt 0.602958 0.783999
vt 0.614584 0.795626
vt 0.622049 0.810276
vt 0.624621 0.826517
vn 0.926700 -0.224867 -0.301101
vn 0.788298 -0.224867 -0.572732
vn 0.788298 -0.224867 -0.572732
vn 0.926700 -0.224867 -0.301101
vn 0.572732 -0.224867 -0.788298
vn 0.572732 -0.224867 -0.788298
vn 0.301102 -0.224867 -0.926700
vn 0.301102 -0.224867 -0.926700
vn -0.000000 -0.224867 -0.974389
vn -0.000000 -0.224867 -0.974389
vn -0.301102 -0.224867 -0.926700
vn -0.301102 -0.224867 -0.926700
vn -0.572732 -0.224867 -0.788298
vn -0.572732 -0.224867 -0.788298
vn -0.788298 -0.224867 -0.572731
vn -0.788298 -0.224867 -0.572731
vn -0.926699 -0.224867 -0.301103
vn -0.926699 -0.224867 -0.301103
vn -0.974389 -0.224867 0.000000
vn -0.974389 -0.224867 0.000000
vn -0.926700 -0.224867 0.301103
vn -0.926699 -0.224867 0.301103
vn -0.788298 -0.224867 0.572732
vn -0.788298 -0.224867 0.572732
vn -0.572732 -0.224867 0.788298
vn -0.572732 -0.224867 0.788298
vn -0.301102 -0.224867 0.926700
vn -0.301102 -0.224867 0.926700
vn 0.000000 -0.224867 0.974389
vn 0.000000 -0.224867 0.974389
vn 0.301102 -0.224867 0.926700
vn 0.301102 -0.224867 0.926700
vn 0.572732 -0.224867 0.788298
vn 0.572732 -0.224867 0.788298
vn 0.788298 -0.224867 0.572731
vn 0.788298 -0.224867 0.572731
vn 0.926700 -0.224867 0.301102
vn 0.926700 -0.224867 0.301102
vn 0.974390 -0.224867 0.000001
vn 0.974390 -0.224867 0.000001
vn 0.000000 -1.000000 0.000002
vn 0.000000 -1.000000 -0.000002
vn 0.000000 -1.000000 -0.000000
vn 0.000000 -1.000000 0.000001
vn 0.000000 -1.000000 -0.000001
vn 0.000000 -1.000000 0.000000
vn 0.000000 -1.000000 -0.000002
vn 0.000000 -1.000000 -0.000002
vn 0.000000 -1.000000 0.000000
vn 0.000000 -1.000000 0.000000
vn 0.000000 -1.000000 0.000000
vn 0.000000 -1.000000 0.000000
vn 0.000000 -1.000000 -0.000002
vn 0.000000 -1.000000 -0.000001
vn 0.000000 -1.000000 0.000001
vn 0.000000 -1.000000 0.000000
vn 0.000000 -1.000000 0.000002
vn 0.000000 -1.000000 0.000002
vn 0.000000 -1.000000 0.000000
vn 0.000000 -1.000000 0.000000
vn 0.000000 -1.000000 -0.000002
vn 0.000000 1.000000 0.000002
vn 0.000000 1.000000 0.000002
vn 0.000000 1.000000 0.000000
vn 0.000000 1.000000 -0.000001
vn 0.000000 1.000000 -0.000001
vn 0.000000 1.000000 0.000000
vn 0.000000 1.000000 -0.000000
vn 0.000000 1.000000 0.000000
vn 0.000000 1.000000 0.000001
vn 0.000000 1.000000 0.000000
vn 0.000000 1.000000 0.000000
vn 0.000000 1.000000 0.000002
vn 0.000000 1.000000 0.000002
vn 0.000000 1.000000 0.000001
vn 0.000000 1.000000 0.000001
vn 0.000000 1.000000 0.000000
vn 0.000000 1.000000 -0.000000
vn 0.000000 1.000000 -0.000000
vn 0.000000 1.000000 0.000000
vn 0.000000 1.000000 0.000000
vn 0.000000 1.000000 0.000000
s 1
g polySurface70 pPrism9
usemtl labertAlgo
f 1/1/1 2/2/2 22/3/3 21/4/4
f 2/5/2 3/6/5 23/7/6 22/8/3
f 3/9/5 4/10/7 24/11/8 23/12/6
f 4/13/7 5/14/9 25/15/10 24/16/8
f 5/17/9 6/18/11 26/19/12 25/20/10
f 6/21/11 7/22/13 27/23/14 26/24/12
f 7/25/13 8/26/15 28/27/16 27/28/14
f 8/29/15 9/30/17 29/31/18 28/32/16
f 9/33/17 10/34/19 30/35/20 29/36/18
f 10/37/19 11/38/21 31/39/22 30/40/20
f 11/41/21 12/42/23 32/43/24 31/44/22
f 12/45/23 13/46/25 33/47/26 32/48/24
f 13/49/25 14/50/27 34/51/28 33/52/26
f 14/53/27 15/54/29 35/55/30 34/56/28
f 15/57/29 16/58/31 36/59/32 35/60/30
f 16/61/31 17/62/33 37/63/34 36/64/32
f 17/65/33 18/66/35 38/67/36 37/68/34
f 18/69/35 19/70/37 39/71/38 38/72/36
f 19/73/37 20/74/39 40/75/40 39/76/38
f 20/77/39 1/78/1 21/79/4 40/80/40
s 2
f 2/81/41 1/82/42 41/83/43
f 3/84/44 2/81/41 41/83/43
f 4/85/45 3/84/44 41/83/43
f 5/86/46 4/85/45 41/83/43
f 6/87/47 5/86/46 41/83/43
f 7/88/48 6/87/47 41/83/43
f 8/89/49 7/88/48 41/83/43
f 9/90/50 8/89/49 41/83/43
f 10/91/51 9/90/50 41/83/43
f 11/92/52 10/91/51 41/83/43
f 12/93/53 11/92/52 41/83/43
f 13/94/54 12/93/53 41/83/43
f 14/95/55 13/94/54 41/83/43
f 15/96/56 14/95/55 41/83/43
f 16/97/57 15/96/56 41/83/43
f 17/98/58 16/97/57 41/83/43
f 18/99/59 17/98/58 41/83/43
f 19/100/60 18/99/59 41/83/43
f 20/101/61 19/100/60 41/83/43
f 1/82/42 20/101/61 41/83/43
s 3
f 21/102/62 22/103/63 42/104/64
f 22/103/63 23/105/65 42/104/64
f 23/105/65 24/106/66 42/104/64
f 24/106/66 25/107/67 42/104/64
f 25/107/67 26/108/68 42/104/64
f 26/108/68 27/109/69 42/104/64
f 27/109/69 28/110/70 42/104/64
f 28/110/70 29/111/71 42/104/64
f 29/111/71 30/112/72 42/104/64
f 30/112/72 31/113/73 42/104/64
f 31/113/73 32/114/74 42/104/64
f 32/114/74 33/115/75 42/104/64
f 33/115/75 34/116/76 42/104/64
f 34/116/76 35/117/77 42/104/64
f 35/117/77 36/118/78 42/104/64
f 36/118/78 37/119/79 42/104/64
f 37/119/79 38/120/80 42/104/64
f 38/120/80 39/121/81 42/104/64
f 39/121/81 40/122/82 42/104/64
f 40/122/82 21/102/62 42/104/64
